<svg width="24" height="24" viewBox="0 0 24 24" fill="none" xmlns="http://www.w3.org/2000/svg">
<path d="M7.89011 13.0297C8.45896 13.0297 8.9201 12.5686 8.9201 11.9997C8.9201 11.4309 8.45896 10.9697 7.89011 10.9697C7.32125 10.9697 6.86011 11.4309 6.86011 11.9997C6.86011 12.5686 7.32125 13.0297 7.89011 13.0297Z" fill="black"/>
<path d="M12.0002 13.0297C12.5691 13.0297 13.0302 12.5686 13.0302 11.9997C13.0302 11.4309 12.5691 10.9697 12.0002 10.9697C11.4314 10.9697 10.9702 11.4309 10.9702 11.9997C10.9702 12.5686 11.4314 13.0297 12.0002 13.0297Z" fill="black"/>
<path d="M16.1101 13.0297C16.6789 13.0297 17.1401 12.5686 17.1401 11.9997C17.1401 11.4309 16.6789 10.9697 16.1101 10.9697C15.5412 10.9697 15.0801 11.4309 15.0801 11.9997C15.0801 12.5686 15.5412 13.0297 16.1101 13.0297Z" fill="black"/>
<path d="M20.44 15.8H20.43C20.95 14.64 21.25 13.35 21.25 12C21.25 6.89 17.11 2.75 12 2.75C6.89 2.75 2.75 6.89 2.75 12C2.75 17.11 6.89 21.25 12 21.25C13.51 21.25 14.94 20.88 16.2 20.24L21.2 20.98L20.44 15.8Z" stroke="black" stroke-width="1.5" stroke-linecap="round" stroke-linejoin="round"/>
</svg>
