<svg width="25" height="25" viewBox="0 0 25 25" fill="none" xmlns="http://www.w3.org/2000/svg">
<path d="M14.916 21.325H9.35596V15.375C9.35596 14.825 9.80596 14.375 10.356 14.375H13.916C14.466 14.375 14.916 14.825 14.916 15.375V21.325V21.325Z" stroke="black" stroke-width="1.5" stroke-linecap="round" stroke-linejoin="round"/>
<path d="M21.386 11.4648V18.1748C21.386 19.9148 20.046 21.3248 18.386 21.3248H5.88599C4.22599 21.3248 2.88599 19.9148 2.88599 18.1748V11.4648C2.88599 10.5248 3.27599 9.64482 3.96599 9.04482L10.216 3.55482C11.326 2.57482 12.946 2.57482 14.056 3.55482L20.306 9.04482C20.996 9.64482 21.386 10.5248 21.386 11.4648Z" stroke="black" stroke-width="1.5" stroke-linecap="round" stroke-linejoin="round"/>
</svg>
