<svg width="68" height="14" viewBox="0 0 68 14" fill="none" xmlns="http://www.w3.org/2000/svg">
<path fill-rule="evenodd" clip-rule="evenodd" d="M46.5894 1.16016H61.4106C62.6587 1.16016 63.1113 1.29011 63.5676 1.53414C64.0239 1.77817 64.382 2.13628 64.626 2.59257C64.87 3.04887 65 3.50147 65 4.7496V9.07072C65 10.3188 64.87 10.7714 64.626 11.2277C64.382 11.684 64.0239 12.0421 63.5676 12.2862C63.1113 12.5302 62.6587 12.6602 61.4106 12.6602H46.5894C45.3413 12.6602 44.8887 12.5302 44.4324 12.2862C43.9761 12.0421 43.618 11.684 43.374 11.2277C43.13 10.7714 43 10.3188 43 9.07072V4.7496C43 3.50147 43.13 3.04887 43.374 2.59257C43.618 2.13628 43.9761 1.77817 44.4324 1.53414C44.8887 1.29011 45.3413 1.16016 46.5894 1.16016ZM46.5894 2.16016C45.6025 2.16016 45.2579 2.22669 44.904 2.41596C44.622 2.56679 44.4066 2.78214 44.2558 3.06417C44.0665 3.41806 44 3.76262 44 4.7496V9.07072C44 10.0577 44.0665 10.4023 44.2558 10.7561C44.4066 11.0382 44.622 11.2535 44.904 11.4044C45.2579 11.5936 45.6025 11.6602 46.5894 11.6602H61.4106C62.3975 11.6602 62.7421 11.5936 63.096 11.4044C63.378 11.2535 63.5934 11.0382 63.7442 10.7561C63.9335 10.4023 64 10.0577 64 9.07072V4.7496C64 3.76262 63.9335 3.41806 63.7442 3.06417C63.5934 2.78214 63.378 2.56679 63.096 2.41596C62.7421 2.22669 62.3975 2.16016 61.4106 2.16016H46.5894ZM67.5 6.85016C67.5 8.08673 66 8.85016 66 8.85016V4.85016C66 4.85016 67.5 5.61359 67.5 6.85016Z" fill="#121212"/>
<rect x="45" y="3.07666" width="18" height="7.66667" rx="1.6" fill="#121212"/>
<path fill-rule="evenodd" clip-rule="evenodd" d="M14.623 2.56599C14.6 2.68191 14.6 2.8213 14.6 3.1001V10.8001C14.6 11.0789 14.6 11.2183 14.623 11.3342C14.7177 11.8102 15.0899 12.1824 15.5659 12.277C15.6818 12.3001 15.8212 12.3001 16.1 12.3001C16.3788 12.3001 16.5182 12.3001 16.6341 12.277C17.1101 12.1824 17.4822 11.8102 17.5769 11.3342C17.6 11.2183 17.6 11.0789 17.6 10.8001V3.1001C17.6 2.8213 17.6 2.68191 17.5769 2.56599C17.4822 2.08996 17.1101 1.71784 16.6341 1.62316C16.5182 1.6001 16.3788 1.6001 16.1 1.6001C15.8212 1.6001 15.6818 1.6001 15.5659 1.62316C15.0899 1.71784 14.7177 2.08996 14.623 2.56599ZM9.89999 5.5001C9.89999 5.22131 9.89999 5.08191 9.92305 4.96599C10.0177 4.48996 10.3899 4.11784 10.8659 4.02316C10.9818 4.0001 11.1212 4.0001 11.4 4.0001C11.6788 4.0001 11.8182 4.0001 11.9341 4.02316C12.4101 4.11784 12.7822 4.48996 12.8769 4.96599C12.9 5.08191 12.9 5.22131 12.9 5.5001V10.8001C12.9 11.0789 12.9 11.2183 12.8769 11.3342C12.7822 11.8102 12.4101 12.1824 11.9341 12.277C11.8182 12.3001 11.6788 12.3001 11.4 12.3001C11.1212 12.3001 10.9818 12.3001 10.8659 12.277C10.3899 12.1824 10.0177 11.8102 9.92305 11.3342C9.89999 11.2183 9.89999 11.0789 9.89999 10.8001V5.5001ZM5.32305 7.26599C5.29999 7.38191 5.29999 7.52131 5.29999 7.8001V10.8001C5.29999 11.0789 5.29999 11.2183 5.32305 11.3342C5.41773 11.8102 5.78985 12.1824 6.26588 12.277C6.3818 12.3001 6.52119 12.3001 6.79999 12.3001C7.07878 12.3001 7.21818 12.3001 7.3341 12.277C7.81012 12.1824 8.18224 11.8102 8.27693 11.3342C8.29999 11.2183 8.29999 11.0789 8.29999 10.8001V7.8001C8.29999 7.52131 8.29999 7.38191 8.27693 7.26599C8.18224 6.78997 7.81012 6.41785 7.3341 6.32316C7.21818 6.3001 7.07878 6.3001 6.79999 6.3001C6.52119 6.3001 6.3818 6.3001 6.26588 6.32316C5.78985 6.41785 5.41773 6.78997 5.32305 7.26599ZM0.523058 9.26599C0.5 9.38191 0.5 9.52131 0.5 9.8001V10.8001C0.5 11.0789 0.5 11.2183 0.523058 11.3342C0.617746 11.8102 0.989863 12.1824 1.46589 12.277C1.58181 12.3001 1.72121 12.3001 2 12.3001C2.27879 12.3001 2.41819 12.3001 2.53411 12.277C3.01014 12.1824 3.38225 11.8102 3.47694 11.3342C3.5 11.2183 3.5 11.0789 3.5 10.8001V9.8001C3.5 9.52131 3.5 9.38191 3.47694 9.26599C3.38225 8.78997 3.01014 8.41785 2.53411 8.32316C2.41819 8.3001 2.27879 8.3001 2 8.3001C1.72121 8.3001 1.58181 8.3001 1.46589 8.32316C0.989863 8.41785 0.617746 8.78997 0.523058 9.26599Z" fill="#121212"/>
<path fill-rule="evenodd" clip-rule="evenodd" d="M30.3005 3.69675C32.5349 3.69685 34.6839 4.5554 36.3033 6.09496C36.4252 6.21382 36.6201 6.21232 36.7402 6.0916L37.9059 4.91518C37.9667 4.85395 38.0006 4.77101 38.0001 4.68472C37.9996 4.59842 37.9647 4.51589 37.9032 4.45537C33.6529 0.382064 26.9475 0.382064 22.6972 4.45537C22.6356 4.51584 22.6007 4.59835 22.6001 4.68465C22.5995 4.77094 22.6334 4.85391 22.6941 4.91518L23.8601 6.0916C23.9802 6.2125 24.1752 6.214 24.2971 6.09496C25.9167 4.5553 28.0659 3.69675 30.3005 3.69675ZM30.3005 7.52414C31.5282 7.52406 32.712 7.98038 33.622 8.80441C33.7451 8.92136 33.939 8.91883 34.059 8.7987L35.2233 7.62228C35.2846 7.56058 35.3187 7.47687 35.3178 7.38988C35.3169 7.3029 35.2812 7.21989 35.2186 7.15945C32.4474 4.5817 28.1559 4.5817 25.3848 7.15945C25.3222 7.21989 25.2865 7.30294 25.2857 7.38995C25.2848 7.47696 25.319 7.56067 25.3804 7.62228L26.5444 8.7987C26.6644 8.91883 26.8583 8.92136 26.9813 8.80441C27.8908 7.98092 29.0737 7.52465 30.3005 7.52414ZM32.5381 10.3317C32.6003 10.2706 32.6346 10.1865 32.6328 10.0993C32.6311 10.0121 32.5934 9.92944 32.5286 9.87092C31.2424 8.78302 29.3586 8.78302 28.0724 9.87092C28.0076 9.92939 27.9699 10.012 27.968 10.0992C27.9662 10.1865 28.0004 10.2706 28.0626 10.3317L30.077 12.3642C30.136 12.424 30.2165 12.4576 30.3005 12.4576C30.3845 12.4576 30.465 12.424 30.524 12.3642L32.5381 10.3317Z" fill="#121212"/>
</svg>
