<svg width="375" height="44" viewBox="0 0 375 44" fill="none" xmlns="http://www.w3.org/2000/svg">
<rect width="375" height="44" fill="white"/>
<path fill-rule="evenodd" clip-rule="evenodd" d="M329.589 20.1599H344.411C345.659 20.1599 346.111 20.2899 346.568 20.5339C347.024 20.7779 347.382 21.136 347.626 21.5923C347.87 22.0486 348 22.5012 348 23.7494V28.0705C348 29.3186 347.87 29.7712 347.626 30.2275C347.382 30.6838 347.024 31.0419 346.568 31.2859C346.111 31.53 345.659 31.6599 344.411 31.6599H329.589C328.341 31.6599 327.889 31.53 327.432 31.2859C326.976 31.0419 326.618 30.6838 326.374 30.2275C326.13 29.7712 326 29.3186 326 28.0705V23.7494C326 22.5012 326.13 22.0486 326.374 21.5923C326.618 21.136 326.976 20.7779 327.432 20.5339C327.889 20.2899 328.341 20.1599 329.589 20.1599ZM329.589 21.1599C328.602 21.1599 328.258 21.2264 327.904 21.4157C327.622 21.5665 327.407 21.7819 327.256 22.0639C327.067 22.4178 327 22.7624 327 23.7494V28.0705C327 29.0575 327.067 29.402 327.256 29.7559C327.407 30.0379 327.622 30.2533 327.904 30.4041C328.258 30.5934 328.602 30.6599 329.589 30.6599H344.411C345.398 30.6599 345.742 30.5934 346.096 30.4041C346.378 30.2533 346.593 30.0379 346.744 29.7559C346.933 29.402 347 29.0575 347 28.0705V23.7494C347 22.7624 346.933 22.4178 346.744 22.0639C346.593 21.7819 346.378 21.5665 346.096 21.4157C345.742 21.2264 345.398 21.1599 344.411 21.1599H329.589ZM350.5 25.8499C350.5 27.0865 349 27.8499 349 27.8499V23.8499C349 23.8499 350.5 24.6133 350.5 25.8499Z" fill="#121212"/>
<rect x="328" y="22.0767" width="18" height="7.66667" rx="1.6" fill="#121212"/>
<path fill-rule="evenodd" clip-rule="evenodd" d="M297.623 21.5657C297.6 21.6817 297.6 21.8211 297.6 22.0999V29.7999C297.6 30.0786 297.6 30.218 297.623 30.334C297.718 30.81 298.09 31.1821 298.566 31.2768C298.682 31.2999 298.821 31.2999 299.1 31.2999C299.379 31.2999 299.518 31.2999 299.634 31.2768C300.11 31.1821 300.482 30.81 300.577 30.334C300.6 30.218 300.6 30.0786 300.6 29.7999V22.0999C300.6 21.8211 300.6 21.6817 300.577 21.5657C300.482 21.0897 300.11 20.7176 299.634 20.6229C299.518 20.5999 299.379 20.5999 299.1 20.5999C298.821 20.5999 298.682 20.5999 298.566 20.6229C298.09 20.7176 297.718 21.0897 297.623 21.5657ZM292.9 24.4999C292.9 24.2211 292.9 24.0817 292.923 23.9657C293.018 23.4897 293.39 23.1176 293.866 23.0229C293.982 22.9999 294.121 22.9999 294.4 22.9999C294.679 22.9999 294.818 22.9999 294.934 23.0229C295.41 23.1176 295.782 23.4897 295.877 23.9657C295.9 24.0817 295.9 24.2211 295.9 24.4999V29.7999C295.9 30.0787 295.9 30.218 295.877 30.334C295.782 30.81 295.41 31.1821 294.934 31.2768C294.818 31.2999 294.679 31.2999 294.4 31.2999C294.121 31.2999 293.982 31.2999 293.866 31.2768C293.39 31.1821 293.018 30.81 292.923 30.334C292.9 30.218 292.9 30.0787 292.9 29.7999V24.4999ZM288.323 26.2657C288.3 26.3817 288.3 26.5211 288.3 26.7999V29.7999C288.3 30.0787 288.3 30.218 288.323 30.334C288.418 30.81 288.79 31.1821 289.266 31.2768C289.382 31.2999 289.521 31.2999 289.8 31.2999C290.079 31.2999 290.218 31.2999 290.334 31.2768C290.81 31.1821 291.182 30.81 291.277 30.334C291.3 30.218 291.3 30.0787 291.3 29.7999V26.7999C291.3 26.5211 291.3 26.3817 291.277 26.2657C291.182 25.7897 290.81 25.4176 290.334 25.3229C290.218 25.2999 290.079 25.2999 289.8 25.2999C289.521 25.2999 289.382 25.2999 289.266 25.3229C288.79 25.4176 288.418 25.7897 288.323 26.2657ZM283.523 28.2657C283.5 28.3817 283.5 28.5211 283.5 28.7999V29.7999C283.5 30.0787 283.5 30.218 283.523 30.334C283.618 30.81 283.99 31.1821 284.466 31.2768C284.582 31.2999 284.721 31.2999 285 31.2999C285.279 31.2999 285.418 31.2999 285.534 31.2768C286.01 31.1821 286.382 30.81 286.477 30.334C286.5 30.218 286.5 30.0787 286.5 29.7999V28.7999C286.5 28.5211 286.5 28.3817 286.477 28.2657C286.382 27.7897 286.01 27.4176 285.534 27.3229C285.418 27.2999 285.279 27.2999 285 27.2999C284.721 27.2999 284.582 27.2999 284.466 27.3229C283.99 27.4176 283.618 27.7897 283.523 28.2657Z" fill="#121212"/>
<path fill-rule="evenodd" clip-rule="evenodd" d="M313.3 22.6963C315.535 22.6964 317.684 23.5549 319.303 25.0945C319.425 25.2133 319.62 25.2118 319.74 25.0911L320.906 23.9147C320.967 23.8535 321 23.7705 321 23.6842C320.999 23.5979 320.965 23.5154 320.903 23.4549C316.653 19.3816 309.947 19.3816 305.697 23.4549C305.635 23.5154 305.601 23.5979 305.6 23.6842C305.599 23.7705 305.633 23.8534 305.694 23.9147L306.86 25.0911C306.98 25.212 307.175 25.2135 307.297 25.0945C308.917 23.5548 311.066 22.6963 313.3 22.6963ZM313.3 26.5236C314.528 26.5236 315.712 26.9799 316.622 27.8039C316.745 27.9209 316.939 27.9183 317.059 27.7982L318.223 26.6218C318.285 26.5601 318.319 26.4764 318.318 26.3894C318.317 26.3024 318.281 26.2194 318.218 26.159C315.447 23.5812 311.156 23.5812 308.385 26.159C308.322 26.2194 308.286 26.3024 308.286 26.3895C308.285 26.4765 308.319 26.5602 308.38 26.6218L309.544 27.7982C309.664 27.9183 309.858 27.9209 309.981 27.8039C310.891 26.9804 312.074 26.5242 313.3 26.5236ZM315.538 29.3313C315.6 29.2701 315.635 29.186 315.633 29.0988C315.631 29.0116 315.593 28.929 315.529 28.8704C314.242 27.7825 312.358 27.7825 311.072 28.8704C311.008 28.9289 310.97 29.0115 310.968 29.0987C310.966 29.186 311 29.2701 311.063 29.3313L313.077 31.3638C313.136 31.4235 313.216 31.4571 313.3 31.4571C313.384 31.4571 313.465 31.4235 313.524 31.3638L315.538 29.3313Z" fill="#121212"/>
<path d="M44.0946 20.1675C46.3505 20.1675 48.3134 21.7715 48.3134 25.5801V25.5947C48.3134 29.1543 46.7094 31.2637 44.0507 31.2637C42.1098 31.2637 40.6596 30.1138 40.3227 28.4951L40.308 28.4146H42.1684L42.1904 28.4878C42.4687 29.2275 43.1205 29.7109 44.0507 29.7109C45.7279 29.7109 46.4384 28.0703 46.519 26.0488C46.519 25.9683 46.5263 25.8877 46.5263 25.8071H46.3798C45.9916 26.6421 45.0688 27.3818 43.6186 27.3818C41.5898 27.3818 40.1689 25.9023 40.1689 23.8955V23.8809C40.1689 21.7349 41.8022 20.1675 44.0946 20.1675ZM44.0873 25.9316C45.2812 25.9316 46.1967 25.0674 46.1967 23.8735V23.8589C46.1967 22.6504 45.2812 21.7056 44.1093 21.7056C42.9447 21.7056 42.0146 22.6357 42.0146 23.8149V23.8296C42.0146 25.0527 42.8862 25.9316 44.0873 25.9316ZM51.4736 24.1519C50.8071 24.1519 50.309 23.6392 50.309 22.9946C50.309 22.3428 50.8071 21.8374 51.4736 21.8374C52.1474 21.8374 52.6381 22.3428 52.6381 22.9946C52.6381 23.6392 52.1474 24.1519 51.4736 24.1519ZM51.4736 29.5864C50.8071 29.5864 50.309 29.0811 50.309 28.4292C50.309 27.7773 50.8071 27.272 51.4736 27.272C52.1474 27.272 52.6381 27.7773 52.6381 28.4292C52.6381 29.0811 52.1474 29.5864 51.4736 29.5864ZM59.7607 31V28.9712H54.5898V27.4258C55.9595 25.0454 57.4609 22.6138 58.8965 20.4312H61.5698V27.4111H62.9907V28.9712H61.5698V31H59.7607ZM56.3477 27.4551H59.79V21.9399H59.6802C58.5962 23.5952 57.373 25.5508 56.3477 27.3452V27.4551ZM67.2056 31V22.2915H67.0811L64.4517 24.1519V22.3721L67.2129 20.4312H69.0953V31H67.2056Z" fill="#121212"/>
</svg>
