<svg width="43" height="45" viewBox="0 0 43 45" fill="none" xmlns="http://www.w3.org/2000/svg">
<path d="M16.9647 13.0302C17.5335 13.0302 17.9947 12.5691 17.9947 12.0002C17.9947 11.4314 17.5335 10.9702 16.9647 10.9702C16.3958 10.9702 15.9347 11.4314 15.9347 12.0002C15.9347 12.5691 16.3958 13.0302 16.9647 13.0302Z" fill="black"/>
<path d="M21.0747 13.0302C21.6435 13.0302 22.1047 12.5691 22.1047 12.0002C22.1047 11.4314 21.6435 10.9702 21.0747 10.9702C20.5058 10.9702 20.0447 11.4314 20.0447 12.0002C20.0447 12.5691 20.5058 13.0302 21.0747 13.0302Z" fill="black"/>
<path d="M25.1847 13.0302C25.7535 13.0302 26.2147 12.5691 26.2147 12.0002C26.2147 11.4314 25.7535 10.9702 25.1847 10.9702C24.6158 10.9702 24.1547 11.4314 24.1547 12.0002C24.1547 12.5691 24.6158 13.0302 25.1847 13.0302Z" fill="black"/>
<path d="M29.5147 15.8H29.5047C30.0247 14.64 30.3247 13.35 30.3247 12C30.3247 6.89 26.1847 2.75 21.0747 2.75C15.9647 2.75 11.8247 6.89 11.8247 12C11.8247 17.11 15.9647 21.25 21.0747 21.25C22.5847 21.25 24.0147 20.88 25.2747 20.24L30.2747 20.98L29.5147 15.8Z" stroke="black" stroke-width="1.5" stroke-linecap="round" stroke-linejoin="round"/>
<path d="M20.1081 31.4961V41.9961H19.0416V36.5703H17.6823V41.457H16.6627V31.707H17.6823V35.6562H19.0416V31.4961H20.1081ZM15.3854 32.7617V33.6641H12.5612V38.5273C13.8502 38.5156 14.8229 38.457 15.9479 38.2461L16.0299 39.1602C14.7643 39.418 13.6862 39.4648 12.151 39.4766H11.4479V32.7617H15.3854ZM29.682 31.4961V35.8906H31.264V36.8281H29.682V41.9961H28.5687V31.4961H29.682ZM21.3265 39.1367C22.1527 39.1367 23.1136 39.1367 24.1156 39.1016V38.0352C22.932 37.8711 22.1586 37.1562 22.1703 36.1367C22.1586 34.9531 23.1781 34.168 24.6781 34.168C26.1664 34.168 27.1976 34.9531 27.2093 36.1367C27.1976 37.1562 26.4125 37.877 25.2289 38.0469V39.0547C26.1605 39.0195 27.098 38.9434 27.9711 38.8203L28.0414 39.6406C25.7679 40.0508 23.307 40.0625 21.5023 40.0625L21.3265 39.1367ZM27.8187 32.7383V33.6289H21.5257V32.7383H24.1156V31.5195H25.2289V32.7383H27.8187ZM24.6781 35.0352C23.7992 35.0352 23.2132 35.4688 23.2132 36.1367C23.2132 36.8047 23.7992 37.2148 24.6781 37.2148C25.557 37.2148 26.1429 36.8047 26.1429 36.1367C26.1429 35.4688 25.557 35.0352 24.6781 35.0352Z" fill="black"/>
</svg>
