<svg width="43" height="46" viewBox="0 0 43 46" fill="none" xmlns="http://www.w3.org/2000/svg">
<path d="M17.0261 13.1049C17.5949 13.1049 18.0561 12.6438 18.0561 12.0749C18.0561 11.5061 17.5949 11.0449 17.0261 11.0449C16.4572 11.0449 15.9961 11.5061 15.9961 12.0749C15.9961 12.6438 16.4572 13.1049 17.0261 13.1049Z" fill="#9F9F9F"/>
<path d="M21.1362 13.1049C21.7051 13.1049 22.1662 12.6438 22.1662 12.0749C22.1662 11.5061 21.7051 11.0449 21.1362 11.0449C20.5673 11.0449 20.1062 11.5061 20.1062 12.0749C20.1062 12.6438 20.5673 13.1049 21.1362 13.1049Z" fill="#9F9F9F"/>
<path d="M25.2461 13.1049C25.8149 13.1049 26.2761 12.6438 26.2761 12.0749C26.2761 11.5061 25.8149 11.0449 25.2461 11.0449C24.6772 11.0449 24.2161 11.5061 24.2161 12.0749C24.2161 12.6438 24.6772 13.1049 25.2461 13.1049Z" fill="#9F9F9F"/>
<path d="M29.576 15.8747H29.566C30.086 14.7147 30.386 13.4247 30.386 12.0747C30.386 6.96471 26.246 2.82471 21.136 2.82471C16.026 2.82471 11.886 6.96471 11.886 12.0747C11.886 17.1847 16.026 21.3247 21.136 21.3247C22.646 21.3247 24.076 20.9547 25.336 20.3147L30.336 21.0547L29.576 15.8747Z" stroke="#9F9F9F" stroke-width="1.5" stroke-linecap="round" stroke-linejoin="round"/>
<path d="M20.1693 31.5708V42.0708H19.1029V36.645H17.7435V41.5317H16.724V31.7817H17.7435V35.731H19.1029V31.5708H20.1693ZM15.4467 32.8364V33.7388H12.6225V38.6021C13.9115 38.5903 14.8842 38.5317 16.0092 38.3208L16.0912 39.2349C14.8256 39.4927 13.7475 39.5396 12.2123 39.5513H11.5092V32.8364H15.4467ZM29.7433 31.5708V35.9653H31.3253V36.9028H29.7433V42.0708H28.63V31.5708H29.7433ZM21.3878 39.2114C22.214 39.2114 23.1749 39.2114 24.1769 39.1763V38.1099C22.9933 37.9458 22.2198 37.231 22.2315 36.2114C22.2198 35.0278 23.2394 34.2427 24.7394 34.2427C26.2276 34.2427 27.2589 35.0278 27.2706 36.2114C27.2589 37.231 26.4737 37.9517 25.2901 38.1216V39.1294C26.2218 39.0942 27.1593 39.0181 28.0323 38.895L28.1026 39.7153C25.8292 40.1255 23.3683 40.1372 21.5636 40.1372L21.3878 39.2114ZM27.88 32.813V33.7036H21.587V32.813H24.1769V31.5942H25.2901V32.813H27.88ZM24.7394 35.1099C23.8605 35.1099 23.2745 35.5435 23.2745 36.2114C23.2745 36.8794 23.8605 37.2896 24.7394 37.2896C25.6183 37.2896 26.2042 36.8794 26.2042 36.2114C26.2042 35.5435 25.6183 35.1099 24.7394 35.1099Z" fill="#9F9F9F"/>
</svg>
