<svg width="43" height="45" viewBox="0 0 43 45" fill="none" xmlns="http://www.w3.org/2000/svg">
<circle cx="21.0747" cy="12" r="11.25" stroke="#9F9F9F" stroke-width="1.5"/>
<path d="M18.4927 17V7.69948H19.9057V15.7796H24.1064V17H18.4927Z" fill="#9F9F9F"/>
<path d="M9.70194 34.168C9.70194 36.0898 10.7801 38 12.3855 38.7266L11.7058 39.6172C10.5105 39.0195 9.61405 37.8301 9.15116 36.3945C8.68827 37.9062 7.76835 39.1836 6.56132 39.8164L5.85819 38.9141C7.4871 38.1406 8.57694 36.1133 8.57694 34.168V32.375H9.70194V34.168ZM14.6707 31.4961V42.0195H13.5691V35.8906H11.2254V34.9883H13.5691V31.4961H14.6707ZM24.9712 31.4961V42.0195H23.8579V31.4961H24.9712ZM17.9751 32.375V35.0703H20.7993V32.375H21.9009V39.5H16.8618V32.375H17.9751ZM17.9751 38.5859H20.7993V35.9492H17.9751V38.5859ZM31.967 32.9844C31.967 34.6953 33.7951 36.3125 35.8108 36.6758L35.2951 37.6016C33.6193 37.2383 32.0725 36.1367 31.3928 34.6602C30.7014 36.125 29.1604 37.2266 27.4787 37.6016L26.9865 36.6758C28.9787 36.3008 30.7951 34.6953 30.7951 32.9844V32.1875H31.967V32.9844ZM36.2443 39.6875V40.6133H26.635V39.6875H36.2443Z" fill="#9F9F9F"/>
</svg>
