<svg width="43" height="45" viewBox="0 0 43 45" fill="none" xmlns="http://www.w3.org/2000/svg">
<path d="M20.6146 12.46C24.4946 16.34 25.3847 11.85 27.8547 14.32C30.2347 16.7 31.6047 17.18 28.5847 20.2C28.2047 20.5 25.8047 24.16 17.3547 15.72C8.90466 7.26995 12.5646 4.86995 12.8646 4.48995C15.8946 1.45995 16.3647 2.83995 18.7447 5.21995C21.2247 7.68995 16.7346 8.57995 20.6146 12.46Z" stroke="#9F9F9F" stroke-width="1.5" stroke-linecap="round" stroke-linejoin="round"/>
<path d="M20.6706 37.0156V37.8945H11.0729V37.0156H15.3151V36.1016H12.3268V31.7773H19.4987V32.6562H13.4518V33.5117H19.2291V34.3438H13.4518V35.2344H19.569V36.1016H16.4284V37.0156H20.6706ZM15.8776 38.5859C18.1862 38.5742 19.4987 39.1836 19.4987 40.2852C19.4987 41.3984 18.1862 41.9844 15.8776 41.9727C13.5456 41.9844 12.2331 41.3984 12.2331 40.2852C12.2331 39.1836 13.5456 38.5742 15.8776 38.5859ZM15.8776 39.418C14.2252 39.418 13.3346 39.7227 13.3463 40.2852C13.3346 40.8477 14.2252 41.1406 15.8776 41.1289C17.5065 41.1406 18.3854 40.8477 18.3854 40.2852C18.3854 39.7227 17.5065 39.418 15.8776 39.418ZM29.682 31.4961V35.8906H31.264V36.8281H29.682V41.9961H28.5687V31.4961H29.682ZM21.3265 39.1367C22.1527 39.1367 23.1136 39.1367 24.1156 39.1016V38.0352C22.932 37.8711 22.1586 37.1562 22.1703 36.1367C22.1586 34.9531 23.1781 34.168 24.6781 34.168C26.1664 34.168 27.1976 34.9531 27.2093 36.1367C27.1976 37.1562 26.4125 37.877 25.2289 38.0469V39.0547C26.1605 39.0195 27.098 38.9434 27.9711 38.8203L28.0414 39.6406C25.7679 40.0508 23.307 40.0625 21.5023 40.0625L21.3265 39.1367ZM27.8187 32.7383V33.6289H21.5257V32.7383H24.1156V31.5195H25.2289V32.7383H27.8187ZM24.6781 35.0352C23.7992 35.0352 23.2132 35.4688 23.2132 36.1367C23.2132 36.8047 23.7992 37.2148 24.6781 37.2148C25.557 37.2148 26.1429 36.8047 26.1429 36.1367C26.1429 35.4688 25.557 35.0352 24.6781 35.0352Z" fill="#9F9F9F"/>
</svg>
