<svg width="43" height="46" viewBox="0 0 43 46" fill="none" xmlns="http://www.w3.org/2000/svg">
<path d="M23.916 21.325H18.356V15.375C18.356 14.825 18.806 14.375 19.356 14.375H22.916C23.466 14.375 23.916 14.825 23.916 15.375V21.325V21.325Z" stroke="black" stroke-width="1.5" stroke-linecap="round" stroke-linejoin="round"/>
<path d="M30.386 11.4648V18.1748C30.386 19.9148 29.046 21.3248 27.386 21.3248H14.886C13.226 21.3248 11.886 19.9148 11.886 18.1748V11.4648C11.886 10.5248 12.276 9.64482 12.966 9.04482L19.216 3.55482C20.326 2.57482 21.946 2.57482 23.056 3.55482L29.306 9.04482C29.996 9.64482 30.386 10.5248 30.386 11.4648Z" stroke="black" stroke-width="1.5" stroke-linecap="round" stroke-linejoin="round"/>
<path d="M24.7395 38.9067V41.9419H17.4856V38.9067H24.7395ZM18.5872 39.7622V41.0864H23.6614V39.7622H18.5872ZM25.3723 32.4028V33.2583H16.8293V32.4028H20.5676V31.4302H21.6809V32.4028H25.3723ZM21.1184 33.6333C23.3333 33.6333 24.5637 34.1372 24.5637 35.1216C24.5637 36.0181 23.5383 36.5161 21.6809 36.5981V37.313H25.9114V38.1919H16.3372V37.313H20.5676V36.5981C18.7102 36.5161 17.6614 36.0181 17.6731 35.1216C17.6614 34.1372 18.9153 33.6333 21.1184 33.6333ZM21.1184 34.395C19.6536 34.4067 18.8567 34.6411 18.8567 35.1216C18.8567 35.5903 19.6536 35.8481 21.1184 35.8481C22.595 35.8481 23.3801 35.5903 23.3801 35.1216C23.3801 34.6411 22.595 34.4067 21.1184 34.395Z" fill="#181A1B"/>
</svg>
