<svg width="43" height="45" viewBox="0 0 43 45" fill="none" xmlns="http://www.w3.org/2000/svg">
<path d="M23.8547 21.2503H18.2947V15.3003C18.2947 14.7503 18.7447 14.3003 19.2947 14.3003H22.8547C23.4047 14.3003 23.8547 14.7503 23.8547 15.3003V21.2503V21.2503Z" stroke="#9F9F9F" stroke-width="1.5" stroke-linecap="round" stroke-linejoin="round"/>
<path d="M30.3247 11.3901V18.1001C30.3247 19.8401 28.9847 21.2501 27.3247 21.2501H14.8247C13.1647 21.2501 11.8247 19.8401 11.8247 18.1001V11.3901C11.8247 10.4501 12.2147 9.57012 12.9047 8.97012L19.1547 3.48012C20.2647 2.50012 21.8847 2.50012 22.9947 3.48012L29.2447 8.97012C29.9347 9.57012 30.3247 10.4501 30.3247 11.3901Z" stroke="#9F9F9F" stroke-width="1.5" stroke-linecap="round" stroke-linejoin="round"/>
<path d="M24.6782 38.832V41.8672H17.4243V38.832H24.6782ZM18.5259 39.6875V41.0117H23.6001V39.6875H18.5259ZM25.311 32.3281V33.1836H16.7681V32.3281H20.5063V31.3555H21.6196V32.3281H25.311ZM21.0571 33.5586C23.272 33.5586 24.5024 34.0625 24.5024 35.0469C24.5024 35.9434 23.4771 36.4414 21.6196 36.5234V37.2383H25.8501V38.1172H16.2759V37.2383H20.5063V36.5234C18.6489 36.4414 17.6001 35.9434 17.6118 35.0469C17.6001 34.0625 18.854 33.5586 21.0571 33.5586ZM21.0571 34.3203C19.5923 34.332 18.7954 34.5664 18.7954 35.0469C18.7954 35.5156 19.5923 35.7734 21.0571 35.7734C22.5337 35.7734 23.3188 35.5156 23.3188 35.0469C23.3188 34.5664 22.5337 34.332 21.0571 34.3203Z" fill="#9F9F9F"/>
</svg>
